<?xml version="1.0" encoding="utf-8"?>
<!-- Svg Vector Icons : http://www.onlinewebfonts.com/icon -->
<!DOCTYPE svg PUBLIC "-//W3C//DTD SVG 1.1//EN" "http://www.w3.org/Graphics/SVG/1.1/DTD/svg11.dtd">
<svg version="1.1" xmlns="http://www.w3.org/2000/svg" xmlns:xlink="http://www.w3.org/1999/xlink" x="0px" y="0px" viewBox="0 0 1000 1000" enable-background="new 0 0 1000 1000" xml:space="preserve">
<metadata> Svg Vector Icons : http://www.onlinewebfonts.com/icon </metadata>
<g><path d="M500,10C229.4,10,10,229.4,10,500s219.4,490,490,490s490-219.4,490-490S770.6,10,500,10z M369.3,736.9H261.7V389.3h107.6V736.9z M315,343.8c-35.1,0-63.6-28.7-63.6-64.1c0-35.4,28.5-64.1,63.6-64.1c35.1,0,63.6,28.7,63.6,64.1C378.6,315.1,350.1,343.8,315,343.8z M772.4,736.9H665.4c0,0,0-132.4,0-182.4c0-50-19-78-58.6-78c-43.1,0-65.6,29.1-65.6,78c0,53.5,0,182.4,0,182.4H438.1V389.3h103.2v46.8c0,0,31-57.4,104.7-57.4c73.7,0,126.5,45,126.5,138.1C772.4,609.9,772.4,736.9,772.4,736.9z"/></g>
</svg>